<?xml version="1.0" encoding="UTF-8" standalone="no"?>
<svg
   xmlns:dc="http://purl.org/dc/elements/1.1/"
   xmlns:cc="http://creativecommons.org/ns#"
   xmlns:rdf="http://www.w3.org/1999/02/22-rdf-syntax-ns#"
   xmlns:svg="http://www.w3.org/2000/svg"
   xmlns="http://www.w3.org/2000/svg"
   xmlns:sodipodi="http://sodipodi.sourceforge.net/DTD/sodipodi-0.dtd"
   xmlns:inkscape="http://www.inkscape.org/namespaces/inkscape"
   width="38.252998mm"
   height="22.993mm"
   viewBox="0 0 38.252998 22.993"
   version="1.1"
   id="svg8"
   sodipodi:docname="soctor-who-logo-1.svg"
   inkscape:version="1.0.2 (e86c870879, 2021-01-15)">
  <defs
     id="defs2" />
  <sodipodi:namedview
     id="base"
     pagecolor="#ffffff"
     bordercolor="#666666"
     borderopacity="1.0"
     inkscape:pageopacity="0.0"
     inkscape:pageshadow="2"
     inkscape:zoom="2.8456265"
     inkscape:cx="55.864331"
     inkscape:cy="140.08528"
     inkscape:document-units="mm"
     inkscape:current-layer="layer1"
     inkscape:document-rotation="0"
     showgrid="false"
     showguides="false"
     fit-margin-top="0"
     fit-margin-left="0"
     fit-margin-right="0"
     fit-margin-bottom="0"
     inkscape:window-width="945"
     inkscape:window-height="1038"
     inkscape:window-x="962"
     inkscape:window-y="29"
     inkscape:window-maximized="0" />
  <metadata
     id="metadata5">
    <rdf:RDF>
      <cc:Work
         rdf:about="">
        <dc:format>image/svg+xml</dc:format>
        <dc:type
           rdf:resource="http://purl.org/dc/dcmitype/StillImage" />
        <dc:title></dc:title>
      </cc:Work>
    </rdf:RDF>
  </metadata>
  <g
     inkscape:label="Layer 1"
     inkscape:groupmode="layer"
     id="layer1"
     transform="translate(2.5,2.5)">
    <rect
       style="fill:#3c57c3;fill-opacity:1;stroke-width:0.319528"
       id="rect839"
       width="38.252998"
       height="22.993"
       x="-2.5"
       y="-2.5"
       ry="2.1919966" />
    <g
       id="g850"
       transform="translate(0,-7.1531458)">
      <g
         aria-label="
WHO"
         id="text835"
         style="font-size:10.5833px;line-height:1.25;font-family:CCTimelord;-inkscape-font-specification:CCTimelord;fill:#ffffff;fill-opacity:1;stroke-width:0.264583">
        <path
           d="M 9.3592995,13.744183 H 12.18152 L 9.6556326,25.033063 H 7.6236342 L 5.5634135,20.348178 3.4890818,25.033063 H 1.4711945 l -2.5399981,-11.28888 h 2.8363312 l 1.2841101,5.545662 2.5117758,-5.531551 2.4976648,5.531551 z"
           style="text-align:center;text-anchor:middle;fill:#ffffff;fill-opacity:1;stroke-width:0.264583"
           id="path1644" />
        <path
           d="m 21.960486,13.744183 v 11.28888 h -2.582331 v -5.870218 q -0.366889,-0.02822 -0.536222,-0.02822 -1.114777,0 -1.834443,0.437444 -0.719666,0.437444 -1.382888,1.396999 v 4.063997 H 13.02816 v -11.28888 h 2.596442 v 3.97933 q 0.917222,-0.747888 1.721554,-1.03011 0.818444,-0.282222 2.031999,-0.282222 v -2.666998 z"
           style="font-size:14.1111px;text-align:center;text-anchor:middle;fill:#ffffff;fill-opacity:1;stroke-width:0.264583"
           id="path1646" />
        <path
           d="m 30.751692,21.575843 q 0.917221,-0.90311 0.917221,-2.18722 0,-1.28411 -0.917221,-2.187221 -0.903111,-0.917221 -2.187221,-0.917221 -1.28411,0 -2.18722,0.917221 -0.903111,0.903111 -0.903111,2.187221 0,1.28411 0.903111,2.18722 0.90311,0.903111 2.18722,0.903111 1.28411,0 2.187221,-0.903111 z m 1.876776,-6.251217 q 1.693332,1.679221 1.693332,4.063997 0,2.384776 -1.693332,4.078108 -1.679221,1.679221 -4.063997,1.679221 -2.384776,0 -4.078108,-1.679221 -1.679221,-1.693332 -1.679221,-4.078108 0,-2.384776 1.679221,-4.063997 1.693332,-1.693332 4.078108,-1.693332 2.384776,0 4.063997,1.693332 z"
           style="font-size:14.1111px;text-align:center;text-anchor:middle;fill:#ffffff;fill-opacity:1;stroke-width:0.264583"
           id="path1648" />
      </g>
      <g
         aria-label="Soctor"
         id="text843"
         style="font-size:5.64444px;line-height:1.25;font-family:CCTimelord;-inkscape-font-specification:CCTimelord;stroke-width:0.264583">
        <path
           d="m 10.739367,10.381766 q 0,0.530577 -0.321733,0.931332 -0.316089,0.395111 -0.8353775,0.395111 H 7.8099023 l 0.3951108,-0.970844 h 0.987777 q 0.1693332,0 0.2935109,-0.1016 0.1298222,-0.107244 0.1298222,-0.276577 0,-0.163689 -0.191911,-0.293511 Q 9.2323012,9.9302104 8.9613681,9.8173216 8.690435,9.7044328 8.4138574,9.5633218 8.1429243,9.4165663 7.9510133,9.1512776 7.7591023,8.885989 7.7591023,8.5191003 q 0,-0.4063997 0.2370665,-0.7619994 Q 8.2332353,7.4015012 8.6057684,7.2660346 8.8089682,7.1926569 8.921857,7.1926569 h 1.71591 L 10.265234,8.1578562 H 9.3395456 q -0.4628441,0 -0.4628441,0.3160886 0,0.079022 0.011289,0.1185333 0.033867,0.141111 0.2370665,0.2709331 0.2088442,0.1241777 0.4741329,0.2483554 0.2652887,0.1185332 0.5249332,0.2765775 0.259644,0.1523999 0.434622,0.4063997 0.180622,0.2540002 0.180622,0.5870222 z"
           style="font-size:5.64444px;fill:#ffffff;fill-opacity:1;stroke-width:0.264583"
           id="path1631" />
        <path
           d="m 13.279358,9.9979437 q 0,-0.2652887 -0.186266,-0.5192885 -0.180622,-0.2596443 -0.434622,-0.2596443 -0.270933,0 -0.485422,0.2539998 -0.208844,0.2483554 -0.208844,0.524933 0,0.2935113 0.186266,0.5870213 0.186267,0.293511 0.468489,0.293511 0.3048,0 0.479777,-0.276577 0.180622,-0.282222 0.180622,-0.6039553 z m 1.004711,0.033866 q 0,0.620889 -0.4572,1.179688 -0.4572,0.553155 -1.061155,0.553155 -0.214488,0 -0.321733,-0.0056 -0.434622,-0.01693 -0.778932,-0.270933 -0.344311,-0.254 -0.524933,-0.637822 -0.174978,-0.389466 -0.174978,-0.818444 0,-0.6773325 0.445911,-1.2079099 0.44591,-0.5305774 1.111954,-0.5305774 h 0.208845 q 0.423333,0 0.784577,0.2652887 0.366889,0.2596443 0.564444,0.6603995 0.2032,0.3951108 0.2032,0.8127991 z"
           style="font-size:5.64444px;fill:#ffffff;fill-opacity:1;stroke-width:0.264583"
           id="path1633" />
        <path
           d="m 16.225747,8.3384783 h 0.75071 l -0.310444,0.8918215 h -0.293511 q -0.34431,0 -0.609599,0.2144887 -0.259644,0.2144888 -0.259644,0.5587995 0,0.344311 0.220133,0.587022 0.225777,0.237066 0.564444,0.248355 h 0.64911 l -0.400755,0.874888 H 16.03948 q -0.694266,0 -1.111954,-0.479777 -0.417689,-0.485422 -0.417689,-1.190977 0,-0.7281326 0.491066,-1.2135545 0.496711,-0.4910662 1.224844,-0.4910662 z"
           style="font-size:5.64444px;fill:#ffffff;fill-opacity:1;stroke-width:0.264583"
           id="path1635" />
        <path
           d="m 18.726227,8.3497671 h 0.784578 l -0.389467,0.8805327 h -0.395111 v 1.2474212 q 0,0.09031 0.02822,0.158044 0.02822,0.06773 0.09596,0.107245 0.07338,0.03951 0.118533,0.06209 0.04516,0.02258 0.158045,0.03387 0.112888,0.0056 0.146755,0.0056 0.03387,0 0.1524,0 l -0.321733,0.869243 h -0.389467 q -0.451555,0 -0.745066,-0.276577 -0.169333,-0.163689 -0.225777,-0.361244 -0.05645,-0.2032 -0.05645,-0.491067 l 0.0056,-1.3546652 h -0.6604 l 0.333022,-0.8805327 h 0.327378 l 0.0056,-0.6999105 1.027288,-0.4967108 z"
           style="font-size:5.64444px;fill:#ffffff;fill-opacity:1;stroke-width:0.264583"
           id="path1637" />
        <path
           d="m 21.881465,9.9979437 q 0,-0.2652887 -0.186267,-0.5192885 -0.180622,-0.2596443 -0.434622,-0.2596443 -0.270933,0 -0.485422,0.2539998 -0.208844,0.2483554 -0.208844,0.524933 0,0.2935113 0.186266,0.5870213 0.186267,0.293511 0.468489,0.293511 0.3048,0 0.479777,-0.276577 0.180623,-0.282222 0.180623,-0.6039553 z m 1.00471,0.033866 q 0,0.620889 -0.4572,1.179688 -0.457199,0.553155 -1.061155,0.553155 -0.214488,0 -0.321733,-0.0056 -0.434622,-0.01693 -0.778932,-0.270933 -0.344311,-0.254 -0.524933,-0.637822 -0.174978,-0.389466 -0.174978,-0.818444 0,-0.6773325 0.445911,-1.2079099 0.445911,-0.5305774 1.111955,-0.5305774 h 0.208844 q 0.423333,0 0.784577,0.2652887 0.366889,0.2596443 0.564444,0.6603995 0.2032,0.3951108 0.2032,0.8127991 z"
           style="font-size:5.64444px;fill:#ffffff;fill-opacity:1;stroke-width:0.264583"
           id="path1639" />
        <path
           d="m 24.630298,8.3497671 h 0.863599 l -0.389466,0.8748883 h -0.1016 q -0.784577,0 -0.784577,0.6491106 v 1.834443 H 23.224833 V 9.7947438 q 0,-0.5926662 0.406399,-1.0159992 0.4064,-0.4289775 0.999066,-0.4289775 z"
           style="font-size:5.64444px;fill:#ffffff;fill-opacity:1;stroke-width:0.264583"
           id="path1641" />
      </g>
    </g>
  </g>
</svg>
