<?xml version="1.0" standalone="no"?>
<!DOCTYPE svg PUBLIC "-//W3C//DTD SVG 20010904//EN"
 "http://www.w3.org/TR/2001/REC-SVG-20010904/DTD/svg10.dtd">
<svg version="1.0" xmlns="http://www.w3.org/2000/svg"
 width="1456.000000pt" height="1456.000000pt" viewBox="0 0 1456.000000 1456.000000"
 preserveAspectRatio="xMidYMid meet">
<metadata>
Created by potrace 1.14, written by Peter Selinger 2001-2017
</metadata>
<g transform="translate(0.000000,1456.000000) scale(0.100000,-0.100000)"
fill="#000000" stroke="none">
<path d="M0 9345 l0 -2415 388 2 387 3 3 958 2 957 773 -2 772 -3 3 -958 2
-957 388 2 387 3 3 2413 2 2412 -390 0 -390 0 0 -1095 0 -1095 -775 0 -775 0
0 1095 0 1095 -390 0 -390 0 0 -2415z"/>
<path d="M5050 11625 l0 -135 -195 0 -194 0 -3 -137 -3 -138 -192 -3 -193 -2
0 -135 0 -135 -195 0 -195 0 2 -2002 3 -2003 388 -3 387 -2 0 960 0 960 775 0
775 0 0 -960 0 -960 390 0 390 0 0 2005 0 2005 -195 0 -195 0 0 135 0 135
-192 2 -193 3 -3 138 -3 137 -194 0 -195 0 0 135 0 135 -385 0 -385 0 0 -135z
m770 -1000 l0 -135 195 0 195 0 0 -460 0 -460 -775 0 -775 0 0 460 0 460 195
0 195 0 0 135 0 135 385 0 385 0 0 -135z"/>
<path d="M8540 11625 l0 -135 -192 -2 -193 -3 -3 -137 -3 -138 -94 0 -95 0 0
-135 0 -134 -97 -3 -98 -3 0 -1725 0 -1725 98 -3 97 -3 0 -134 0 -135 193 -2
192 -3 3 -137 3 -138 969 0 970 0 0 140 0 140 195 0 195 0 0 135 0 135 95 0
95 0 0 365 0 365 -387 -2 -388 -3 -3 -137 -3 -138 -94 0 -95 0 0 -135 0 -135
-582 2 -583 3 -3 133 -3 132 -94 0 -95 0 2 1278 3 1277 92 3 92 3 3 132 3 132
98 3 97 3 0 134 0 135 390 0 390 0 0 -135 0 -135 95 0 95 0 0 -135 0 -135 485
0 485 0 0 225 0 225 -95 0 -95 0 0 135 0 134 -97 3 -98 3 -3 138 -3 137 -194
0 -195 0 0 135 0 135 -775 0 -775 0 0 -135z"/>
<path d="M11650 9345 l0 -2415 385 0 385 0 2 958 3 957 95 0 95 0 3 -137 3
-138 94 0 95 0 0 -135 0 -134 98 -3 97 -3 3 -132 3 -132 92 -3 92 -3 3 -137 3
-138 94 0 94 0 3 -132 3 -133 98 -3 97 -3 0 -134 0 -135 95 0 95 0 0 -140 0
-140 390 0 390 0 -2 228 -3 227 -92 3 -92 3 -3 132 -3 132 -97 3 -98 3 0 134
0 135 -95 0 -94 0 -3 138 -3 137 -97 3 -98 3 0 134 0 135 -95 0 -95 0 0 135 0
134 -97 3 -98 3 -3 138 -3 137 -94 0 -95 0 0 135 0 135 -95 0 -95 0 0 185 0
185 95 0 95 0 0 135 0 135 95 0 95 0 0 135 0 135 100 0 100 0 0 140 0 140 195
0 195 0 0 135 0 135 95 0 95 0 0 135 0 134 98 3 97 3 3 138 3 137 94 0 95 0 0
225 0 225 -390 0 -390 0 0 -135 0 -135 -95 0 -94 0 -3 -137 -3 -138 -97 -3
-98 -3 0 -134 0 -135 -190 0 -190 0 0 -135 0 -134 -97 -3 -98 -3 -3 -137 -3
-138 -94 0 -95 0 0 -135 0 -136 -97 3 -98 3 -3 818 -2 817 -385 0 -385 0 0
-2415z"/>
<path d="M13212 4418 l3 -1583 573 -3 572 -2 0 1585 0 1585 -575 0 -575 0 2
-1582z"/>
<path d="M4820 5974 c-14 -2 -58 -9 -99 -15 -351 -52 -658 -266 -791 -552 -43
-92 -61 -170 -67 -293 -14 -283 100 -517 337 -694 103 -76 185 -116 550 -273
490 -210 545 -240 586 -320 24 -46 35 -133 23 -187 -12 -58 -72 -131 -130
-161 -101 -51 -321 -67 -495 -34 -156 29 -387 135 -542 250 l-61 45 -197 -233
-196 -232 44 -38 c166 -144 430 -277 683 -342 185 -47 296 -59 499 -52 247 9
404 45 580 135 222 114 371 268 453 468 47 116 63 199 63 337 0 154 -20 250
-75 362 -70 144 -200 269 -377 364 -76 41 -471 211 -663 286 -136 53 -281 125
-325 161 -43 37 -70 97 -70 160 0 133 79 222 231 259 58 14 99 17 218 12 218
-8 350 -50 537 -172 48 -31 90 -55 95 -53 11 4 339 410 339 420 0 12 -119 108
-200 161 -149 97 -345 176 -530 212 -81 16 -365 29 -420 19z"/>
<path d="M7488 5965 c-102 -17 -242 -61 -330 -106 -371 -187 -608 -587 -668
-1124 -14 -127 -14 -501 0 -625 71 -633 355 -1054 818 -1211 137 -46 263 -63
436 -56 314 11 536 105 747 316 219 220 346 514 401 929 19 148 16 559 -6 702
-55 362 -158 608 -343 822 -157 181 -344 289 -595 344 -102 22 -350 27 -460 9z
m375 -613 c150 -74 264 -261 311 -511 53 -277 44 -698 -20 -944 -68 -267 -219
-440 -403 -465 -266 -37 -463 162 -540 546 -41 203 -50 518 -21 748 36 280
139 501 279 599 72 49 135 66 237 62 79 -2 100 -7 157 -35z"/>
<path d="M10585 5969 c-611 -77 -1072 -520 -1204 -1157 -63 -302 -47 -704 37
-992 86 -293 297 -587 534 -743 230 -152 459 -225 738 -234 315 -11 553 51
783 203 107 72 261 214 255 237 -1 8 -83 103 -182 211 l-178 196 -50 -43
c-200 -170 -312 -218 -508 -218 -466 0 -770 389 -770 986 0 366 113 655 322
825 131 105 259 150 433 150 173 0 305 -47 459 -162 l65 -49 39 43 c22 24 106
117 187 208 l147 165 -54 48 c-127 114 -360 247 -510 291 -149 43 -366 57
-543 35z"/>
<path d="M490 5513 l0 -359 318 -191 c174 -105 436 -264 582 -352 146 -88 266
-165 268 -173 1 -8 -198 -134 -504 -318 -279 -168 -542 -327 -585 -353 l-79
-49 0 -355 c0 -319 2 -355 16 -349 15 6 1684 1069 1772 1128 l42 29 0 268 0
267 -87 56 c-369 236 -1685 1075 -1710 1090 l-33 20 0 -359z"/>
</g>
</svg>
